<svg viewBox="0 0 680 600" xmlns="http://www.w3.org/2000/svg" role="img" style="font-family:Calibri, 'Segoe UI', sans-serif;background:#FFFFFF;max-width:100%;height:auto">
<title>Orchestrator</title>
<defs><marker id="arrow" viewBox="0 0 10 10" refX="8" refY="5" markerWidth="6" markerHeight="6" orient="auto-start-reverse"><path d="M2 1L8 5L2 9" fill="none" stroke="#5B6472" stroke-width="1.5" stroke-linecap="round" stroke-linejoin="round"/></marker></defs>
<rect x="240" y="40" width="200" height="44" rx="8" fill="#F1EFE8" stroke="#5F5E5A" stroke-width="0.8"/>
<text x="340" y="62" font-size="12" fill="#1A1A2E" font-weight="600" text-anchor="middle" dominant-baseline="central">Fan out per job</text>
<line x1="280" y1="84" x2="170" y2="118" stroke="#5B6472" stroke-width="1.5" marker-end="url(#arrow)"/>
<line x1="400" y1="84" x2="510" y2="118" stroke="#5B6472" stroke-width="1.5" marker-end="url(#arrow)"/>
<rect x="40" y="120" width="250" height="56" rx="8" fill="#FAECE7" stroke="#993C1D" stroke-width="0.8"/>
<text x="165" y="138" font-size="12" fill="#993C1D" font-weight="600" text-anchor="middle" dominant-baseline="central">Resume Builder</text>
<text x="165" y="158" font-size="12" fill="#993C1D" font-weight="400" text-anchor="middle" dominant-baseline="central">Tailors resume to the job</text>
<rect x="390" y="120" width="250" height="56" rx="8" fill="#FAECE7" stroke="#993C1D" stroke-width="0.8"/>
<text x="515" y="138" font-size="12" fill="#993C1D" font-weight="600" text-anchor="middle" dominant-baseline="central">Cover Letter Gate</text>
<text x="515" y="158" font-size="12" fill="#993C1D" font-weight="400" text-anchor="middle" dominant-baseline="central">Build letter or skip</text>
<line x1="110" y1="176" x2="90" y2="214" stroke="#5B6472" stroke-width="1.5" marker-end="url(#arrow)"/>
<line x1="220" y1="176" x2="240" y2="214" stroke="#5B6472" stroke-width="1.5" marker-end="url(#arrow)"/>
<line x1="515" y1="176" x2="515" y2="214" stroke="#5B6472" stroke-width="1.5" marker-end="url(#arrow)"/>
<rect x="40" y="216" width="150" height="56" rx="8" fill="#EEEDFE" stroke="#3C3489" stroke-width="0.8"/>
<text x="115" y="234" font-size="12" fill="#3C3489" font-weight="600" text-anchor="middle" dominant-baseline="central">Verifier</text>
<text x="115" y="254" font-size="12" fill="#3C3489" font-weight="400" text-anchor="middle" dominant-baseline="central">Fact-checks claims</text>
<rect x="210" y="216" width="150" height="56" rx="8" fill="#EEEDFE" stroke="#3C3489" stroke-width="0.8"/>
<text x="285" y="234" font-size="12" fill="#3C3489" font-weight="600" text-anchor="middle" dominant-baseline="central">Critic</text>
<text x="285" y="254" font-size="12" fill="#3C3489" font-weight="400" text-anchor="middle" dominant-baseline="central">Flags weaknesses</text>
<rect x="430" y="216" width="170" height="56" rx="8" fill="#FAECE7" stroke="#993C1D" stroke-width="0.8"/>
<text x="515" y="234" font-size="12" fill="#993C1D" font-weight="600" text-anchor="middle" dominant-baseline="central">Letter Builder</text>
<text x="515" y="254" font-size="12" fill="#993C1D" font-weight="400" text-anchor="middle" dominant-baseline="central">+ Letter Verifier</text>
<line x1="115" y1="272" x2="290" y2="346" stroke="#5B6472" stroke-width="1.5" marker-end="url(#arrow)"/>
<line x1="285" y1="272" x2="330" y2="346" stroke="#5B6472" stroke-width="1.5" marker-end="url(#arrow)"/>
<line x1="515" y1="272" x2="390" y2="346" stroke="#5B6472" stroke-width="1.5" marker-end="url(#arrow)"/>
<rect x="240" y="348" width="200" height="44" rx="8" fill="#F1EFE8" stroke="#5F5E5A" stroke-width="0.8"/>
<text x="340" y="370" font-size="12" fill="#1A1A2E" font-weight="600" text-anchor="middle" dominant-baseline="central">Merge branches</text>
<line x1="340" y1="392" x2="340" y2="424" stroke="#5B6472" stroke-width="1.5" marker-end="url(#arrow)"/>
<rect x="215" y="426" width="250" height="56" rx="8" fill="#FAECE7" stroke="#993C1D" stroke-width="0.8"/>
<text x="340" y="444" font-size="12" fill="#993C1D" font-weight="600" text-anchor="middle" dominant-baseline="central">Resume Scorer</text>
<text x="340" y="464" font-size="12" fill="#993C1D" font-weight="400" text-anchor="middle" dominant-baseline="central">Rates final fit vs the job</text>
<line x1="340" y1="482" x2="340" y2="514" stroke="#5B6472" stroke-width="1.5" marker-end="url(#arrow)"/>
<rect x="190" y="516" width="300" height="44" rx="8" fill="#FAEEDA" stroke="#A16207" stroke-width="0.8"/>
<text x="340" y="538" font-size="12" fill="#A16207" font-weight="600" text-anchor="middle" dominant-baseline="central">Record → database, return to dashboard</text>
</svg>